<?xml version="1.0" encoding="utf-8"?>
<!-- Generator: Adobe Illustrator 12.0.1, SVG Export Plug-In . SVG Version: 6.00 Build 51448)  -->
<!DOCTYPE svg PUBLIC "-//W3C//DTD SVG 1.1//EN" "http://www.w3.org/Graphics/SVG/1.1/DTD/svg11.dtd" [
	<!ENTITY ns_svg "http://www.w3.org/2000/svg">
	<!ENTITY ns_xlink "http://www.w3.org/1999/xlink">
]>
<svg  version="1.1" id="Layer_1" xmlns="&ns_svg;" xmlns:xlink="&ns_xlink;" width="80.652" height="103.582"
	 viewBox="0 0 80.652 103.582" overflow="visible" enable-background="new 0 0 80.652 103.582" xml:space="preserve">
<path fill="none" stroke="#D31145" stroke-miterlimit="3.864" d="M49.205,41.98l7.528-3.449
	c-0.688-3.966-4.875-33.793-27.521-20.793C17.954,24.201,4.019,43.987,4.635,65.036l-3.848,0.606
	C2.36,36.626,19.195,15.286,30.526,6.626c11.1-8.483,24.34-7.593,30.312-0.783c7.428,7.461,9.343,20.949,9.819,26.309l8.39-3.844
	L64.288,70.639L49.205,41.98z"/>
<polyline fill="#0078C1" points="48.026,42.521 50.708,41.314 63.936,66.878 77.344,29.113 80.652,27.504 64.473,73.404 
	48.026,42.521 "/>
<path fill="none" stroke="#D31145" stroke-miterlimit="3.864" d="M24.57,85.074c0,0,4.343-1.695,7.813-4.082
	c2.985-2.052,7.254-6.716,7.254-6.716l8.438,17.254c0,0-10.908,10.478-21.117,11.506L24.57,85.074z M8.943,79.873
	c5.761,6.881,10.424,5.854,13.201,5.574l-3.526,17.372c0,0-12.363-2.621-15.758-16.967L8.943,79.873z M4.748,67.987
	c0.516,3.575,1.957,7.969,2.889,9.833l-6.321,2.985c-0.871-4.123-0.906-6.768-0.731-11.831L4.748,67.987z"/>
</svg>
