<svg xmlns="http://www.w3.org/2000/svg" width="188.504" height="38.428" viewBox="0 0 188.504 38.428">
  <g id="Group_461" data-name="Group 461" transform="translate(-2891.2 -4893.072)">
    <path id="Path_636" data-name="Path 636" d="M31.947,14.807,34.452,7l2.506,7.812h2.2L42.186,3.84H40.006l-1.98,7.58L35.582,3.84H33.369l-2.428,7.548L28.93,3.84H26.672l3.047,10.967ZM49.4,12.626l-1.717-.511a1.682,1.682,0,0,1-1.733,1.16,1.853,1.853,0,0,1-1.918-1.733h5.445c0-.031.031-.341.031-.635,0-2.444-1.407-3.944-3.759-3.944A3.821,3.821,0,0,0,42,10.97a3.855,3.855,0,0,0,3.929,4.068A3.428,3.428,0,0,0,49.4,12.626Zm-3.62-3.991a1.53,1.53,0,0,1,1.7,1.5h-3.4A1.647,1.647,0,0,1,45.776,8.635Zm16.243,6.095v-1.7a2.985,2.985,0,0,1-.634.062c-.588,0-.9-.216-.9-.882V9.022h1.531V7.2H60.487V4.923H58.63V5.99A1.1,1.1,0,0,1,57.455,7.2h-.386V9.022h1.376v3.542a2.2,2.2,0,0,0,2.413,2.351A3.046,3.046,0,0,0,62.018,14.729ZM53.48,13.461a1.266,1.266,0,0,1-1.393-1.16l-1.764.386c.093.866.882,2.352,3.172,2.352,1.995,0,2.954-1.268,2.954-2.506,0-1.114-.758-2.027-2.259-2.336l-1.082-.232c-.418-.077-.7-.309-.7-.68a.875.875,0,0,1,.974-.758,1.159,1.159,0,0,1,1.253,1.021l1.717-.386c-.092-.82-.82-2.2-2.985-2.2a2.653,2.653,0,0,0-2.846,2.49c0,1.067.665,1.949,2.135,2.274l1.005.232c.588.124.82.4.82.743C54.484,13.105,54.16,13.461,53.48,13.461Zm22.346-9.63L73.32,11.643,70.814,3.831h-2.2L65.586,14.8h2.181l1.98-7.579L72.191,14.8H74.4L76.831,7.25,78.842,14.8H81.1L78.053,3.831Zm7.425,2.127a1.268,1.268,0,0,0,0-2.537,1.268,1.268,0,1,0,0,2.537ZM82.23,14.807h2.057V7.2H82.23Zm9.374-.882a5.284,5.284,0,0,0,.077.882h1.965c-.031-.309-.062-.866-.062-1.377V3.608H91.557V7.954a2.279,2.279,0,0,0-2.15-.943,3.72,3.72,0,0,0-3.65,3.976,3.741,3.741,0,0,0,3.712,4.006A2.386,2.386,0,0,0,91.6,13.925Zm-1.887-.774a1.921,1.921,0,0,1-1.887-2.166,1.911,1.911,0,0,1,1.887-2.135,1.887,1.887,0,0,1,1.872,2.119A1.933,1.933,0,0,1,89.716,13.152Zm5.94,1.655h2.058V3.608H95.656ZM42.048,21.954A3.752,3.752,0,0,0,38.243,25.9a3.808,3.808,0,1,0,7.61,0A3.752,3.752,0,0,0,42.048,21.954Zm0,6.6a2.379,2.379,0,0,1-2.32-2.66,2.34,2.34,0,1,1,4.64,0A2.379,2.379,0,0,1,42.048,28.559Zm27.627,1.067h1.438v-7.44H69.675ZM55.924,21.97a2.671,2.671,0,0,0-2.491,1.408,2.324,2.324,0,0,0-2.228-1.408,2.564,2.564,0,0,0-2.258,1.207v-.99H47.555v7.44h1.439V25.14a1.726,1.726,0,0,1,1.733-1.887,1.5,1.5,0,0,1,1.578,1.7v4.671h1.453v-4.5a1.736,1.736,0,0,1,1.718-1.872,1.5,1.5,0,0,1,1.577,1.7v4.671h1.439V24.8A2.551,2.551,0,0,0,55.924,21.97Zm14.463-3.65a1.044,1.044,0,1,0,1.052,1.052A1.039,1.039,0,0,0,70.387,18.319Zm61.188-5.786c0-1.114-.758-2.027-2.259-2.336l-1.083-.232c-.418-.077-.7-.309-.7-.68a.875.875,0,0,1,.974-.758,1.16,1.16,0,0,1,1.253,1.021l1.717-.386c-.092-.82-.819-2.2-2.985-2.2a2.653,2.653,0,0,0-2.846,2.49c0,1.067.665,1.949,2.134,2.274l1.006.232c.588.124.82.4.82.743,0,.4-.325.758-1.005.758a1.265,1.265,0,0,1-1.392-1.16l-1.764.386c.093.866.882,2.352,3.171,2.352C130.616,15.039,131.575,13.771,131.575,12.533ZM32.627,28.466c-2,0-3.9-1.47-3.9-4.331s1.9-4.316,3.9-4.316A3.249,3.249,0,0,1,36.046,22.4l1.407-.5a4.658,4.658,0,0,0-4.826-3.48,5.435,5.435,0,0,0-5.445,5.708,5.388,5.388,0,0,0,5.445,5.723,4.788,4.788,0,0,0,4.841-3.527l-1.345-.5A3.486,3.486,0,0,1,32.627,28.466Zm31.928-6.5a2.717,2.717,0,0,0-2.46,1.268v-4.81H60.657v11.2H62.1V28.544a2.656,2.656,0,0,0,2.414,1.284c2.212,0,3.465-1.748,3.465-3.96C67.974,23.7,66.814,21.97,64.555,21.97Zm-.263,6.559c-1.284,0-2.212-1.052-2.212-2.661s.928-2.614,2.212-2.614c1.346,0,2.2,1.005,2.2,2.614S65.623,28.529,64.292,28.529Zm32.531-10.1H95.384v4.811a2.287,2.287,0,0,0-2.274-1.253,3.656,3.656,0,0,0-3.527,3.9c0,2.212,1.346,3.944,3.527,3.944a2.491,2.491,0,0,0,2.3-1.33v.124a6.289,6.289,0,0,0,.077,1.005H96.9a11.857,11.857,0,0,1-.077-1.377ZM93.249,28.544c-1.392,0-2.181-1.13-2.181-2.661s.867-2.614,2.2-2.614S95.4,24.321,95.4,25.852,94.58,28.544,93.249,28.544Zm16.7-18.115a1.433,1.433,0,0,1,1.423-1.577,1.338,1.338,0,0,1,1.407,1.516v4.44h2.057v-4.8c0-1.67-.866-3.016-2.753-3.016a2.528,2.528,0,0,0-2.2,1.145V7.2h-2v7.611h2.058Zm-32.8,11.54a2.549,2.549,0,0,0-2.29,1.284V22.186H73.434v7.44h1.454v-4.3c0-1.129.588-2.042,1.733-2.042,1.3,0,1.732.836,1.732,1.872v4.47h1.454V24.909C79.807,23.253,78.925,21.97,77.146,21.97ZM104.1,13.894a5.146,5.146,0,0,0,.077.913h1.887a8.516,8.516,0,0,1-.092-1.207V9.857c0-1.531-.9-2.893-3.31-2.893A3.025,3.025,0,0,0,99.4,9.47l1.825.387a1.351,1.351,0,0,1,1.454-1.237c.867,0,1.284.449,1.284.99,0,.263-.139.479-.572.542l-1.871.278a2.345,2.345,0,0,0-2.274,2.3,2.4,2.4,0,0,0,2.614,2.29A2.542,2.542,0,0,0,104.1,13.894Zm-2.8-1.284a.961.961,0,0,1,.944-.959l1.717-.263v.341a1.546,1.546,0,0,1-1.67,1.763A.893.893,0,0,1,101.3,12.61ZM84.928,21.954a3.713,3.713,0,0,0-3.558,3.929,3.712,3.712,0,0,0,3.743,3.975,3.372,3.372,0,0,0,3.341-2.351L87.2,27.074a2.027,2.027,0,0,1-2.088,1.5,2.209,2.209,0,0,1-2.243-2.258h5.6a3.21,3.21,0,0,0,.031-.464C88.5,23.532,87.217,21.954,84.928,21.954Zm-2.011,3.186a2,2,0,0,1,2.027-1.9,1.874,1.874,0,0,1,2.041,1.9Zm39.13-11.216a5.311,5.311,0,0,0,.077.882h1.965c-.03-.309-.062-.866-.062-1.377V3.608H122V7.954a2.279,2.279,0,0,0-2.15-.943,3.72,3.72,0,0,0-3.65,3.976,3.741,3.741,0,0,0,3.712,4.006A2.386,2.386,0,0,0,122.046,13.925Zm-1.887-.774a1.921,1.921,0,0,1-1.887-2.166,1.91,1.91,0,0,1,1.887-2.135,1.887,1.887,0,0,1,1.872,2.119A1.933,1.933,0,0,1,120.159,13.152ZM105.393,18.66l-4.362,10.967h1.624l1.16-3.063h4.857l1.191,3.063h1.64L107.14,18.66Zm-1.036,6.5,1.871-4.919,1.9,4.919ZM130,21.97a2.633,2.633,0,0,0-2.258,1.083V18.428h-1.454v11.2h1.454V25.249c.031-1.1.619-1.964,1.733-1.964,1.3,0,1.732.836,1.732,1.872v4.47h1.454V24.909C132.664,23.253,131.782,21.97,130,21.97Zm8.013-.015a3.752,3.752,0,0,0-3.805,3.945,3.808,3.808,0,1,0,7.61,0A3.752,3.752,0,0,0,138.016,21.954Zm0,6.6a2.379,2.379,0,0,1-2.32-2.66,2.34,2.34,0,1,1,4.641,0A2.379,2.379,0,0,1,138.016,28.559ZM122.9,19.835h-1.33v1.206a1.041,1.041,0,0,1-1.145,1.145h-.4V23.5h1.423v4.084a1.931,1.931,0,0,0,2.073,2.119,3.175,3.175,0,0,0,.99-.139V28.327a2.91,2.91,0,0,1-.572.062c-.758,0-1.036-.34-1.036-1.021V23.5h1.609V22.186H122.9V19.835Zm22.043,3.651v-1.3h-1.423v7.441h1.454V25.9c0-1.64.819-2.289,2.042-2.289a4.518,4.518,0,0,1,.634.046V22.109a2.747,2.747,0,0,0-.479-.046A2.331,2.331,0,0,0,144.946,23.486Zm4.811-5.166a1.044,1.044,0,1,0,1.052,1.052A1.04,1.04,0,0,0,149.757,18.319Zm-.712,11.307h1.438v-7.44h-1.438Zm5.708-9.792h-1.33v1.206a1.041,1.041,0,0,1-1.145,1.145h-.4V23.5H153.3v4.084a1.932,1.932,0,0,0,2.073,2.119,3.174,3.174,0,0,0,.99-.139V28.327a2.913,2.913,0,0,1-.572.062c-.758,0-1.036-.34-1.036-1.021V23.5h1.608V22.186h-1.608Zm-36.12,2.351H117.18v4.486a1.682,1.682,0,0,1-1.764,1.9c-1.222,0-1.685-.9-1.685-1.918V22.186h-1.454v4.687a2.751,2.751,0,0,0,2.784,2.985,2.427,2.427,0,0,0,2.2-1.129,6.527,6.527,0,0,0,.062.9h1.392a12.567,12.567,0,0,1-.078-1.377V22.186Zm44.72,0-2.228,5.135-2.321-5.135h-1.67l3.2,6.62-1.856,3.929h1.593l4.841-10.549h-1.562Z" transform="translate(2914.787 4897)" fill="#1b0b41"/>
    <g id="Group_460" data-name="Group 460" transform="translate(2891.141 4893.072)">
      <path id="Path_634" data-name="Path 634" d="M9.938,0A6.274,6.274,0,0,0,4.5,3.134l-.009.015v8.614L17.4,4.319,9.927.008M37.784,16.077l-.005-.009-7.466-4.3v14.9l7.466-4.3.005-.009A6.275,6.275,0,0,0,37.784,16.077ZM9.927,38.42,4.491,35.294a6.274,6.274,0,0,0,5.435,3.134L17.4,34.112l-12.9-7.44v8.619" transform="translate(3.876 0)" fill="#1b0b41" opacity="0.752"/>
      <path id="Path_635" data-name="Path 635" d="M34.18,3.134A6.274,6.274,0,0,0,28.745,0L13.8.008,41.658,16.07ZM28.745,38.428a6.274,6.274,0,0,0,5.435-3.134l7.478-12.936L13.8,38.42ZM.9,22.351,8.37,35.291V3.137L.9,16.077A6.274,6.274,0,0,0,.9,22.351Z" transform="translate(0 0)" fill="#1b0b41"/>
    </g>
  </g>
</svg>
